<svg xmlns="http://www.w3.org/2000/svg" width="646.03088mm" height="500mm" viewBox="0 0 646.03088 500"><path d="M0 0c-4.517 0-9.699.977-9.699 8.593v32.149H.252V12.541c0-2.126.551-3.144 2.999-3.144h19.654V0Z" style="fill:#142f48;fill-opacity:1;fill-rule:nonzero;stroke:none" transform="matrix(3.00489 0 0 -3.00489 373.719 500)"/><path d="M180.473 122.576h29.97V245h-29.97z" style="fill:#142f48;fill-opacity:1;fill-rule:nonzero;stroke:none;stroke-width:3.00489" transform="translate(280.7 254.998)"/><path d="M0 0h5.433v36.166H18.94v4.576h-32.41v-4.576H0Z" style="fill:#142f48;fill-opacity:1;fill-rule:nonzero;stroke:none" transform="matrix(3.00489 0 0 -3.00489 40.476 500)"/><path d="M0 0h-5.429v-40.742H0v18.384h20.029v-18.384h5.431V0h-5.431v-17.589H0Z" style="fill:#142f48;fill-opacity:1;fill-rule:nonzero;stroke:none" transform="matrix(3.00489 0 0 -3.00489 129.283 377.575)"/><path d="m0 0 .003 11.557h18.034v4.574H.003L0 26.628c0 1.51.406 2.517 2.377 2.517h17.804v4.575H.222c-3.844 0-5.483-1.678-5.483-5.608V-1.412c0-3.932 1.639-5.609 5.483-5.609h20.573v4.572H2.333C.565-2.449 0-1.854 0 0" style="fill:#142f48;fill-opacity:1;fill-rule:nonzero;stroke:none" transform="matrix(3.00489 0 0 -3.00489 241.033 478.9)"/><path d="m0 0-11.357-29.243L-22.712 0h-10.553l14.243-34.994c1.415-3.67 3.78-5.732 7.665-5.746 3.888.014 6.254 2.076 7.668 5.746L10.559 0Z" style="fill:#142f48;fill-opacity:1;fill-rule:nonzero;stroke:none" transform="matrix(3.00489 0 0 -3.00489 614.302 377.575)"/><path d="M0 0c0-27.401-22.21-49.612-49.61-49.612-27.405 0-49.618 22.211-49.618 49.612 0 27.409 22.213 49.618 49.618 49.618C-22.21 49.618 0 27.409 0 0" style="fill:#142f48;fill-opacity:1;fill-rule:nonzero;stroke:none" transform="matrix(3.00489 0 0 -3.00489 472.207 161.487)"/><path d="M0 0a5.241 5.241 0 0 0-5.234-5.239A5.244 5.244 0 0 0-10.477 0a5.244 5.244 0 0 0 5.243 5.238A5.24 5.24 0 0 0 0 0m-2.355-75.023v51.19h-5.76v-17.049h-26.423v55.391c8.216 6.035 18.35 9.611 29.304 9.611 21.076 0 39.115-13.222 46.291-31.804L19.982-42.201 2.405-7.891A10.945 10.945 0 0 1 5.759 0c0 6.063-4.934 10.999-10.993 10.999-6.065 0-11.002-4.936-11.002-10.999 0-6.063 4.937-10.999 11.002-10.999.893 0 1.757.122 2.594.323l19.842-38.726a2.883 2.883 0 0 1 2.448-1.561l.113-.002a2.91 2.91 0 0 1 2.463 1.378l21.045 34.485A49.509 49.509 0 0 0 44.376-25.5c0-26.39-20.711-48.026-46.731-49.523m-5.76 0c-26.027 1.5-46.741 23.133-46.741 49.523 0 13.686 5.572 26.094 14.561 35.082V-43.76a2.878 2.878 0 0 1 2.88-2.878h29.3zm2.881 103.264c-29.682 0-53.744-24.056-53.744-53.741 0-29.675 24.062-53.738 53.744-53.738 29.677 0 53.736 24.063 53.736 53.738 0 29.685-24.059 53.741-53.736 53.741" style="fill:#b28a71;fill-opacity:1;fill-rule:nonzero;stroke:none" transform="matrix(3.00489 0 0 -3.00489 338.862 84.861)"/></svg>