<svg xmlns="http://www.w3.org/2000/svg" width="512" height="512" viewBox="148 -14 350 350"><circle cx="323" cy="161" r="175" fill="#ffffff"/><path d="M0 0c0-27.401-22.21-49.612-49.61-49.612-27.405 0-49.618 22.211-49.618 49.612 0 27.409 22.213 49.618 49.618 49.618C-22.21 49.618 0 27.409 0 0" style="fill:#142f48;fill-opacity:1;fill-rule:nonzero;stroke:none" transform="matrix(3.00489 0 0 -3.00489 472.207 161.487)"/><path d="M0 0a5.241 5.241 0 0 0-5.234-5.239A5.244 5.244 0 0 0-10.477 0a5.244 5.244 0 0 0 5.243 5.238A5.24 5.24 0 0 0 0 0m-2.355-75.023v51.19h-5.76v-17.049h-26.423v55.391c8.216 6.035 18.35 9.611 29.304 9.611 21.076 0 39.115-13.222 46.291-31.804L19.982-42.201 2.405-7.891A10.945 10.945 0 0 1 5.759 0c0 6.063-4.934 10.999-10.993 10.999-6.065 0-11.002-4.936-11.002-10.999 0-6.063 4.937-10.999 11.002-10.999.893 0 1.757.122 2.594.323l19.842-38.726a2.883 2.883 0 0 1 2.448-1.561l.113-.002a2.91 2.91 0 0 1 2.463 1.378l21.045 34.485A49.509 49.509 0 0 0 44.376-25.5c0-26.39-20.711-48.026-46.731-49.523m-5.76 0c-26.027 1.5-46.741 23.133-46.741 49.523 0 13.686 5.572 26.094 14.561 35.082V-43.76a2.878 2.878 0 0 1 2.88-2.878h29.3zm2.881 103.264c-29.682 0-53.744-24.056-53.744-53.741 0-29.675 24.062-53.738 53.744-53.738 29.677 0 53.736 24.063 53.736 53.738 0 29.685-24.059 53.741-53.736 53.741" style="fill:#b28a71;fill-opacity:1;fill-rule:nonzero;stroke:none" transform="matrix(3.00489 0 0 -3.00489 338.862 84.861)"/></svg>